HIERARCHY
ROOT hip
{
	OFFSET 0.000000 0.000000 0.000000 
	CHANNELS 6 Xposition Yposition Zposition Xrotation Zrotation Yrotation
	JOINT abdomen
	{
		OFFSET 0.000000 3.402643 0.000000 
		CHANNELS 3 Xrotation Zrotation Yrotation
		JOINT chest
		{
			OFFSET 0.000000 8.438565 -0.680529 
			CHANNELS 3 Xrotation Zrotation Yrotation
			JOINT neck
			{
				OFFSET 0.000000 10.207942 -0.272212 
				CHANNELS 3 Xrotation Zrotation Yrotation
				JOINT head
				{
					OFFSET 0.000000 3.130431 0.000000 
					CHANNELS 3 Xrotation Zrotation Yrotation
					End Site
					{
						OFFSET 0.000000 3.130435 0.000000 
					}
				}
			}
			JOINT lCollar
			{
				OFFSET 3.470700 6.669187 -0.816635 
				CHANNELS 3 Yrotation Zrotation Xrotation
				JOINT lShldr
				{
					OFFSET 3.198488 0.000000 0.000000 
					CHANNELS 3 Zrotation Yrotation Xrotation
					JOINT lForeArm
					{
						OFFSET 10.139888 0.000000 0.000000 
						CHANNELS 3 Yrotation Zrotation Xrotation
						JOINT lHand
						{
							OFFSET 8.370511 0.000000 0.000000 
							CHANNELS 3 Zrotation Yrotation Xrotation
							End Site
							{
								OFFSET 4.083176 0.000000 0.000000 
							}
						}
					}
				}
			}
			JOINT rCollar
			{
				OFFSET -3.470700 6.669187 -0.816635 
				CHANNELS 3 Yrotation Zrotation Xrotation
				JOINT rShldr
				{
					OFFSET -3.198488 0.000000 0.000000 
					CHANNELS 3 Zrotation Yrotation Xrotation
					JOINT rForeArm
					{
						OFFSET -10.139888 0.000000 0.000000 
						CHANNELS 3 Yrotation Zrotation Xrotation
						JOINT rHand
						{
							OFFSET -8.370511 0.000000 0.000000 
							CHANNELS 3 Zrotation Yrotation Xrotation
							End Site
							{
								OFFSET -4.083176 0.000000 0.000000 
							}
						}
					}
				}
			}
		}
	}
	JOINT lThigh
	{
		OFFSET 5.308129 -1.633274 1.361059 
		CHANNELS 3 Xrotation Zrotation Yrotation
		JOINT lShin
		{
			OFFSET -2.041588 -20.007561 0.000000 
			CHANNELS 3 Xrotation Zrotation Yrotation
			JOINT lFoot
			{
				OFFSET 0.000000 -19.190928 -1.224953 
				CHANNELS 3 Xrotation Yrotation Zrotation
				End Site
				{
					OFFSET 0.000000 -2.449906 4.627600 
				}
			}
		}
	}
	JOINT rThigh
	{
		OFFSET -5.308129 -1.633274 1.361059 
		CHANNELS 3 Xrotation Zrotation Yrotation
		JOINT rShin
		{
			OFFSET 2.041588 -20.007561 0.000000 
			CHANNELS 3 Xrotation Zrotation Yrotation
			JOINT rFoot
			{
				OFFSET 0.000000 -19.190928 -1.224953 
				CHANNELS 3 Xrotation Yrotation Zrotation
				End Site
				{
					OFFSET 0.000000 -2.449906 4.627600 
				}
			}
		}
	}
}
MOTION
Frames: 16
Frame Time: 0.016667
10.367404 29.610937 4.075307 6.997504 -2.559470 -18.280798 62.521969 4.802455 13.392794 4.996377 2.196640 -2.149304 -24.623220 -12.602498 5.292876 -8.761043 -18.804148 26.902227 -9.407818 -12.435259 -0.659633 -0.326321 -28.582146 -15.404924 -60.569126 5.000000 -13.390256 0.542340 -13.065118 28.276173 1.984187 -2.640423 0.139219 40.638950 65.403542 16.318066 110.572746 -5.000000 3.720265 9.659085 -25.138554 24.311821 -30.330227 23.155869 37.904690 43.401882 -2.543147 -2.526111 -19.688044 1.238688 0.028691 -49.315994 0.634258 -11.641394 90.738625 -0.097626 2.700073 -42.922985 -10.849382 -1.628398 
10.650310 29.480717 4.263592 7.128254 -2.592885 -18.525545 62.825172 4.652391 13.556384 4.841625 2.196675 -2.080973 -24.650450 -12.495221 5.224107 -8.763422 -18.770144 26.947851 -9.433857 -12.339335 -0.645188 -0.193846 -28.781536 -15.500846 -60.449211 5.000000 -13.435064 0.503130 -13.028474 28.248085 2.218223 -2.494134 0.131640 41.014805 65.061768 16.787682 110.767288 -5.000000 3.922360 10.098845 -25.122868 23.982700 -30.720722 22.795294 36.780888 44.085537 -2.679990 -2.741915 -21.211596 2.459969 0.713450 -49.742371 0.331965 -11.229177 91.585617 -0.117341 2.522465 -43.111980 -10.970096 -1.063290 
10.944150 29.362995 4.451590 7.242761 -2.597503 -18.828819 63.165684 4.446546 13.696224 4.668741 2.167437 -1.982991 -24.716429 -12.357450 5.158282 -8.740124 -18.717169 26.999483 -9.422968 -12.241816 -0.638078 -0.015284 -29.049559 -15.602968 -60.317013 5.000000 -13.462527 0.455798 -12.960622 28.186342 2.452237 -2.328341 0.123050 41.552639 64.733093 17.408558 110.946823 -5.000000 4.125373 10.579270 -25.083164 23.630850 -31.190783 22.507734 35.719681 44.878788 -2.803704 -2.923676 -22.304281 3.914900 1.208805 -50.214668 -0.010257 -10.821964 92.420677 -0.137117 2.401650 -43.223759 -11.117069 -0.512797 
11.243419 29.248226 4.643413 7.365088 -2.620003 -19.161800 63.477161 4.211453 13.867144 4.515693 2.138202 -1.875621 -24.797169 -12.246888 5.110450 -8.704101 -18.648401 27.042007 -9.383014 -12.163799 -0.634058 0.159856 -29.338346 -15.702524 -60.197311 5.000000 -13.481123 0.439087 -12.914968 28.078745 2.666783 -2.182051 0.115469 42.202969 64.396202 18.115705 111.117226 -5.000000 4.331828 11.101215 -25.032719 23.262079 -31.618565 22.238480 34.765961 45.681103 -2.884849 -3.168889 -23.331976 5.358126 1.684788 -50.657848 -0.321743 -10.411445 93.224648 -0.156148 2.327911 -43.336266 -11.288146 -0.056447 
11.564372 29.145218 4.850499 7.491364 -2.685891 -19.642008 63.691582 3.920097 14.107055 4.471265 2.099220 -1.778034 -24.908756 -12.210029 5.093128 -8.639393 -18.540184 27.105757 -9.236529 -12.163799 -0.634058 0.350163 -29.707634 -15.760097 -60.075680 5.000000 -13.485583 0.504640 -12.883920 27.906124 2.891186 -2.074773 0.109909 43.301926 64.072723 19.207710 111.209869 -5.000000 4.543615 11.745715 -24.929083 22.856056 -31.960264 22.141077 34.119049 46.511898 -3.028705 -3.385249 -24.026556 6.708982 2.052593 -51.218739 -0.634570 -9.978401 94.096008 -0.243997 2.466281 -43.127041 -11.320700 0.335300 
11.885336 29.042215 5.057595 7.621698 -2.760494 -20.112490 63.917198 3.632899 14.359312 4.416766 2.069993 -1.680089 -25.032202 -12.171559 5.087288 -8.561463 -18.433620 27.160471 -9.099699 -12.154047 -0.633555 0.538848 -30.067415 -15.825317 -59.954117 5.000000 -13.485753 0.576467 -12.865634 27.720718 3.115617 -1.977247 0.104855 44.375729 63.738514 20.259092 111.313705 -5.000000 4.756999 12.392624 -24.817810 22.440426 -32.293869 22.048073 33.484509 47.342510 -3.155756 -3.626407 -24.734896 8.052797 2.426705 -51.800880 -0.946721 -9.505284 94.988358 -0.292962 2.606889 -42.871189 -11.394783 0.718999 
12.221350 28.942139 5.287262 7.669437 -2.867296 -20.779486 64.233833 3.222807 14.753936 4.343854 1.943110 -1.553200 -25.135244 -12.123469 5.077933 -8.511670 -18.304197 27.190844 -8.942674 -12.085781 -0.630037 0.609018 -30.499302 -15.895881 -59.840874 5.000000 -13.467367 0.570152 -12.828004 27.543119 3.232484 -1.987550 0.095616 45.756027 63.510193 21.500999 111.335526 -5.000000 4.944118 13.070339 -24.734161 22.042141 -32.360821 22.044378 33.329689 48.134941 -3.243843 -3.880086 -25.319109 9.006625 2.883514 -52.535778 -1.181659 -8.995348 96.025078 -0.430648 2.969542 -42.069313 -11.486210 0.706866 
12.561131 28.842802 5.522580 7.706382 -2.980755 -21.495810 64.587692 2.784058 15.165517 4.260620 1.806447 -1.425980 -25.248938 -12.084998 5.072094 -8.461739 -18.174849 27.221357 -8.775779 -12.007767 -0.626015 0.654759 -30.953188 -15.986138 -59.729691 5.000000 -13.440067 0.536808 -12.790366 27.389902 3.330220 -2.036330 0.098145 47.197426 63.298710 22.776230 111.348061 -5.000000 5.127492 13.734018 -24.657925 21.664581 -32.350658 22.082350 33.284298 48.918873 -3.314757 -4.117116 -25.852108 9.831561 3.331084 -53.304852 -1.356852 -8.462061 97.053574 -0.536873 3.323337 -41.140682 -11.613882 0.519675 
12.903939 28.742722 5.767765 7.710392 -3.046450 -22.250156 64.920502 2.293867 15.569316 4.176443 1.669767 -1.318597 -25.351686 -12.057753 5.058292 -8.401548 -18.062937 27.255039 -8.618547 -11.919997 -0.621489 0.641048 -31.387472 -16.020014 -59.614429 5.000000 -13.425015 0.554468 -12.779917 27.233212 3.418261 -2.124118 0.102695 48.658760 63.092293 24.032610 111.336601 -5.000000 5.262278 14.385152 -24.629301 21.342747 -32.226112 22.078884 33.441185 49.606094 -3.363714 -4.338078 -26.354567 10.417726 3.829323 -54.221634 -1.552427 -7.899202 98.219025 -0.663862 3.651295 -39.868668 -11.623219 0.156081 
13.251293 28.641541 6.027756 7.649282 -3.037732 -23.052202 65.216316 1.712318 15.926507 4.081436 1.533071 -1.230722 -25.439892 -12.036909 5.064792 -8.317864 -17.987343 27.282663 -8.451665 -11.841982 -0.617464 0.577085 -31.818106 -16.000790 -59.480820 5.000000 -13.435426 0.643447 -12.809902 27.099474 3.496633 -2.260668 0.109772 50.136684 62.916019 25.267689 111.278969 -5.000000 5.324870 14.982358 -24.649822 21.151220 -31.972549 21.982210 33.856720 50.272469 -3.351756 -4.376516 -26.809694 10.638011 4.368081 -55.344681 -1.747478 -7.328194 99.496475 -0.780992 3.869953 -38.133980 -11.722356 -0.686804 
13.598653 28.540358 6.287752 7.601893 -3.037245 -23.854235 65.507545 1.139434 16.270903 3.976641 1.406141 -1.123072 -25.526037 -12.017673 5.059835 -8.234102 -17.911781 27.313347 -8.294662 -11.773717 -0.613942 0.513237 -32.248543 -15.974090 -59.349339 5.000000 -13.437055 0.719132 -12.843783 26.966763 3.565664 -2.396609 0.126587 51.624897 62.710411 26.513605 111.232384 -5.000000 5.394866 15.588112 -24.663736 20.939888 -31.717623 21.852325 34.287346 50.918148 -3.324913 -4.455653 -27.337091 10.904541 4.893788 -56.468689 -1.923391 -6.762669 100.773651 -0.898068 4.094215 -36.380093 -11.797275 -1.507232 
13.944244 28.422613 6.583940 7.443711 -2.824475 -24.582987 65.662437 0.532980 16.386917 3.950452 1.298748 -1.025449 -25.588430 -12.035299 5.074211 -8.164039 -17.843889 27.289185 -8.137450 -11.685949 -0.609411 0.353207 -32.675110 -15.918897 -59.215916 5.000000 -13.446486 0.774842 -12.877104 26.827728 3.566013 -2.552650 0.134672 53.010708 62.710480 27.683025 111.091362 -5.000000 5.424746 16.108528 -24.738058 20.882317 -31.325205 21.495226 35.043858 51.501209 -3.217550 -4.424110 -27.731195 10.732723 5.550117 -57.839401 -2.138565 -6.276687 102.068893 -0.908018 3.698468 -33.982166 -11.918518 -2.437927 
14.289836 28.304861 6.880137 7.294290 -2.622351 -25.311604 65.826172 -0.064669 16.506004 3.913905 1.201113 -0.937580 -25.659716 -12.043308 5.085092 -8.086242 -17.768812 27.258881 -7.980246 -11.598180 -0.604880 0.188257 -33.104092 -15.862868 -59.072361 5.000000 -13.455711 0.828490 -12.918761 26.680197 3.556642 -2.718444 0.143261 54.405376 62.685993 28.849131 110.959465 -5.000000 5.454868 16.615561 -24.818106 20.824995 -30.965384 21.128571 35.778843 52.085014 -3.108226 -4.362134 -28.134930 10.616322 6.225778 -59.193874 -2.343785 -5.751623 103.347366 -0.851947 3.307726 -31.622711 -12.148612 -3.424696 
14.625970 28.174963 7.197752 7.099802 -2.292894 -25.911339 65.885574 -0.598957 16.450871 3.896209 1.132768 -0.869235 -25.722120 -12.060932 5.097431 -8.025311 -17.735600 27.240759 -7.852871 -11.559172 -0.602865 0.015527 -33.455021 -15.764277 -58.912739 5.000000 -13.512784 0.902523 -12.987132 26.572498 3.527689 -2.854980 0.150334 55.676437 62.761250 29.940029 110.780968 -5.000000 5.393413 16.974106 -25.018339 21.003119 -30.593121 20.607092 36.550922 52.667904 -3.039993 -4.289389 -28.499506 10.374961 6.957250 -60.558296 -2.607497 -5.307047 104.303635 -0.734932 2.724618 -29.130552 -12.267458 -4.005585 
14.955798 28.036980 7.529650 6.886036 -1.889045 -26.431776 65.880867 -1.106277 16.303770 3.897461 1.074183 -0.810465 -25.785410 -12.088176 5.113273 -7.962024 -17.726917 27.240761 -7.754900 -11.529916 -0.601354 -0.173112 -33.772491 -15.632351 -58.741047 5.000000 -13.597884 0.979087 -13.081854 26.490898 3.479195 -2.981764 0.156900 56.859741 62.905914 30.971308 110.586601 -5.000000 5.278086 17.233881 -25.306042 21.338806 -30.241970 19.963734 37.360989 53.210476 -2.942612 -4.256484 -28.747644 10.081684 7.682516 -61.905857 -2.890475 -4.939876 105.034309 -0.547163 1.998159 -26.588238 -12.391693 -4.411033 
15.280830 27.895306 7.868532 6.660266 -1.463135 -26.904257 65.869781 -1.558556 16.117237 3.908325 1.025362 -0.761650 -25.850779 -12.113802 5.138537 -7.910111 -17.728434 27.228598 -7.659111 -11.518862 -0.610334 -0.362095 -34.077538 -15.487097 -58.573467 5.000000 -13.700603 1.033526 -13.176391 26.414598 3.430716 -3.108547 0.163466 57.994686 63.081722 31.969673 110.369591 -5.000000 5.156625 17.482542 -25.608690 21.718313 -29.899757 19.307699 38.176487 53.802288 -2.856598 -4.203477 -28.994221 9.768415 8.429639 -63.185287 -3.202835 -4.669015 105.523674 -0.400480 1.405031 -24.120274 -12.391132 -4.642935 
